Coordinates
version=1
nRows=8
nColumns=36
inDegrees=yes

Units are S.I. units (second, meters, Newtons, ...)
If the header above contains a line with 'inDegrees', this indicates whether rotational values are in degrees (yes) or radians (no).

endheader
time	pelvis_tilt	pelvis_list	pelvis_rotation	pelvis_tx	pelvis_ty	pelvis_tz	hip_flexion_r	hip_adduction_r	hip_rotation_r	knee_angle_r	knee_angle_r_beta	ankle_angle_r	subtalar_angle_r	mtp_angle_r	hip_flexion_l	hip_adduction_l	hip_rotation_l	knee_angle_l	knee_angle_l_beta	ankle_angle_l	subtalar_angle_l	mtp_angle_l	lumbar_extension	lumbar_bending	lumbar_rotation	arm_flex_r	arm_add_r	arm_rot_r	elbow_flex_r	pro_sup_r	arm_flex_l	arm_add_l	arm_rot_l	elbow_flex_l	pro_sup_l
      0.00000000	      0.32510181	     -3.22133510	     -3.97789407	      0.06331809	      1.02774985	      0.09899161	     -3.70420583	      3.87373370	     -7.27089521	      2.87074940	      0.05010403	      4.92565908	     -6.16051261	     -7.45235341	     -0.09467049	     -3.81817140	     -7.59493745	      4.26651401	      0.07446472	      8.33781634	      1.43677573	     -7.45235341	     -1.37445915	      4.87037005	     -1.25642519	     -3.00117142	    -10.63700886	     18.62759210	    112.87973003	     92.29786028	    -10.81118088	    -26.94326595	     36.11991145	     73.01112088	     64.20152875
      0.01666670	     -0.67202438	     -2.31792068	     -4.18478280	      0.06850744	      1.02646601	      0.09936627	     -2.49470356	      3.15175191	     -7.76800740	      3.19796009	      0.05581493	      7.43819308	     -4.21707966	     -7.46617538	      0.76559468	     -2.64639579	     -8.93272221	      3.98662928	      0.06957981	      8.44742644	      3.09267587	     -7.46617538	      0.92215527	      4.32597331	     -1.34698184	     -3.41739038	    -10.14453347	     18.22313482	    113.12008866	     88.84510447	    -12.36089818	    -28.73152571	     37.99713076	     75.09802515	     63.40440543
      0.03333330	     -1.78538443	     -1.19928868	     -4.74130947	      0.06779403	      1.02297715	      0.10089055	     -1.56345633	      2.25149705	     -8.77685549	      2.52656446	      0.04409687	      8.23742239	     -3.12693388	     -7.47575613	      1.83483654	     -1.53457948	    -10.15962636	      3.77010596	      0.06580076	      8.57105730	      4.19421564	     -7.47575613	      2.87943617	      2.72542660	      0.27572724	     -5.07503666	     -9.74593542	     17.57446468	    113.97126963	     90.41123713	    -10.49840875	    -31.45006342	     43.33828142	     75.69144394	     64.10417616
      0.05000000	     -1.74179101	     -0.86452340	     -5.06078447	      0.06944717	      1.02470975	      0.10233957	     -1.69515278	      1.93684322	     -8.96963616	      2.29300552	      0.04002050	      8.81945284	     -2.08557656	     -7.48590233	      1.57135959	     -1.14710630	    -10.69315637	      3.48838912	      0.06088388	      8.61335252	      4.60466905	     -7.48590233	      3.20982112	      2.14955451	      0.79973151	     -5.80128708	     -9.82145173	     18.42383534	    113.93218772	     87.81884678	     -9.76539424	    -32.59493154	     45.83851433	     75.90200791	     65.29513763
      0.06666670	     -1.85484862	     -0.76256627	     -5.10125882	      0.07087922	      1.02460311	      0.10303908	     -1.66033545	      1.90819355	     -8.94268648	      2.20451905	      0.03847612	      8.81717114	     -2.05813094	     -7.49359909	      1.49983948	     -1.02715595	    -10.73307651	      3.19613480	      0.05578308	      8.22195756	      4.36807069	     -7.49359909	      3.56379397	      1.93846263	      1.64601125	     -7.19997472	     -9.59405531	     18.19890291	    114.88429789	     89.05411634	     -8.24264376	    -33.25977219	     48.78089485	     75.88712890	     68.35808201
      0.08333330	     -1.93855806	     -0.65562500	     -4.90346268	      0.07121171	      1.02812404	      0.10154833	     -1.58784782	      1.81725232	     -9.13406243	      2.21752762	      0.03870316	      8.87818184	     -1.82944075	     -7.49729014	      1.64345194	     -0.93529126	    -10.47450768	      3.37717043	      0.05894274	      8.10960710	      4.17069804	     -7.49729014	      3.79865239	      1.75406067	      1.64263638	     -8.17663458	     -9.43266251	     17.92241107	    115.10322701	     89.78916039	     -7.93412788	    -33.18113683	     49.46136742	     75.55706599	     70.61134148
      0.10000000	     -1.86950773	     -0.65814224	     -4.95688162	      0.07382457	      1.02584486	      0.10214513	     -1.68613914	      1.78721656	     -8.87912766	      2.25813292	      0.03941185	      8.86804579	     -2.05579184	     -7.49857984	      1.85360043	     -1.02121121	    -10.04076872	      4.12556930	      0.07200477	      8.12497393	      3.44295801	     -7.49857984	      3.84347347	      1.70840961	      1.79099065	     -9.33888835	     -9.18808827	     17.56180353	    116.39296784	     88.58297572	     -7.92505820	    -33.11466307	     49.78949289	     75.64622021	     71.12835922
      0.11666670	     -1.86942159	     -0.69978950	     -5.05956215	      0.07249114	      1.02371212	      0.10154797	     -1.66678517	      1.79241205	     -8.38001938	      2.32170836	      0.04052146	      8.79419039	     -2.55288220	     -7.49940743	      2.13312944	     -1.07575027	     -9.77483041	      4.83012164	      0.08430153	      8.39382253	      2.84339435	     -7.49940743	      3.85232263	      1.76817514	      1.45044895	     -9.61302002	     -9.17807210	     17.62704678	    117.56625789	     89.30549090	     -8.69970373	    -32.90431326	     48.69026294	     76.06897359	     71.95844577
